<svg xmlns="http://www.w3.org/2000/svg" viewBox="0 0 1400 560" width="1400" height="560" role="img" aria-label="Roux-en-Y Gastric Bypass" fill="none"><defs><linearGradient id="bgprbariatricsurgeryrouxenyg" x1="0" y1="0" x2="1" y2="1"><stop offset="0" stop-color="#09443a"/><stop offset=".52" stop-color="#0b4f43"/><stop offset="1" stop-color="#17977a"/></linearGradient><radialGradient id="lgprbariatricsurgeryrouxenyg" cx="0.80" cy="0.52" r=".70"><stop offset="0" stop-color="#ffffff" stop-opacity=".17"/><stop offset="1" stop-color="#ffffff" stop-opacity="0"/></radialGradient><pattern id="grprbariatricsurgeryrouxenyg" width="94" height="94" patternUnits="userSpaceOnUse"><g fill="none" stroke="#ffffff" stroke-opacity="0.13" stroke-width="1.2" stroke-linejoin="round"><path d="M47.0 0 L94 47.0 L47.0 94 L0 47.0 Z"/><path d="M23.5 23.5 L70.5 23.5 L70.5 70.5 L23.5 70.5 Z"/><path d="M47.0 0 L47.0 23.5 M94 47.0 L70.5 47.0 M47.0 94 L47.0 70.5 M0 47.0 L23.5 47.0"/><path d="M0 0 L23.5 23.5 M94 0 L70.5 23.5 M94 94 L70.5 70.5 M0 94 L23.5 70.5"/></g></pattern></defs><rect width="1400" height="560" fill="url(#bgprbariatricsurgeryrouxenyg)"/><g transform="rotate(-6 700.0 280.0)"><rect x="-560.0" y="-224.0" width="2520.0" height="1008.0" fill="url(#grprbariatricsurgeryrouxenyg)"/></g><rect width="1400" height="560" fill="url(#lgprbariatricsurgeryrouxenyg)"/><circle cx="1120" cy="291" r="224" fill="#ffffff" fill-opacity=".055"/><circle cx="1120" cy="291" r="224" stroke="#ffffff" stroke-opacity=".18" stroke-width="1.6"/><g transform="translate(988.4 159.6) scale(10.967)" fill="none" stroke="#ffffff" stroke-opacity="0.9" stroke-width="1.05" stroke-linecap="round" stroke-linejoin="round"><path d="M6 4h12l3 5-3 11H6L3 9l3-5Zm2 5a4 4 0 0 1 8 0M12 9l2-2"></path></g><path d="M985.2 112.3 A224 224 0 0 1 1342.3 263.9" fill="none" stroke="#d9a05b" stroke-opacity="0.85" stroke-width="2.6" stroke-linecap="round"/></svg>