<svg xmlns="http://www.w3.org/2000/svg" viewBox="0 0 1400 560" width="1400" height="560" role="img" aria-label="Breast Augmentation" fill="none"><defs><linearGradient id="bgprcosmeticsurgerybreastaug" x1="0" y1="0" x2="1" y2="1"><stop offset="0" stop-color="#2b2a52"/><stop offset=".52" stop-color="#33325f"/><stop offset="1" stop-color="#6a5c9e"/></linearGradient><radialGradient id="lgprcosmeticsurgerybreastaug" cx="0.74" cy="0.46" r=".70"><stop offset="0" stop-color="#ffffff" stop-opacity=".17"/><stop offset="1" stop-color="#ffffff" stop-opacity="0"/></radialGradient><pattern id="grprcosmeticsurgerybreastaug" width="94" height="94" patternUnits="userSpaceOnUse"><g fill="none" stroke="#ffffff" stroke-opacity="0.13" stroke-width="1.2" stroke-linejoin="round"><path d="M47.0 0 L94 47.0 L47.0 94 L0 47.0 Z"/><path d="M23.5 23.5 L70.5 23.5 L70.5 70.5 L23.5 70.5 Z"/><path d="M47.0 0 L47.0 23.5 M94 47.0 L70.5 47.0 M47.0 94 L47.0 70.5 M0 47.0 L23.5 47.0"/><path d="M0 0 L23.5 23.5 M94 0 L70.5 23.5 M94 94 L70.5 70.5 M0 94 L23.5 70.5"/></g></pattern></defs><rect width="1400" height="560" fill="url(#bgprcosmeticsurgerybreastaug)"/><g transform="rotate(26 700.0 280.0)"><rect x="-560.0" y="-224.0" width="2520.0" height="1008.0" fill="url(#grprcosmeticsurgerybreastaug)"/></g><rect width="1400" height="560" fill="url(#lgprcosmeticsurgerybreastaug)"/><circle cx="1036" cy="258" r="224" fill="#ffffff" fill-opacity=".055"/><circle cx="1036" cy="258" r="224" stroke="#ffffff" stroke-opacity=".18" stroke-width="1.6"/><g transform="translate(904.4 126.0) scale(10.967)" fill="none" stroke="#ffffff" stroke-opacity="0.9" stroke-width="1.05" stroke-linecap="round" stroke-linejoin="round"><path d="M12 3a8 8 0 0 0-8 8v2a8 8 0 0 0 16 0v-2a8 8 0 0 0-8-8Zm-3 8h.01M15 11h.01M9 16c2 1 4 1 6 0"></path></g><path d="M907.5 74.1 A224 224 0 0 1 1259.1 238.1" fill="none" stroke="#d9a05b" stroke-opacity="0.85" stroke-width="2.6" stroke-linecap="round"/></svg>