<svg xmlns="http://www.w3.org/2000/svg" viewBox="0 0 1400 560" width="1400" height="560" role="img" aria-label="Umbilical Hernia Repair" fill="none"><defs><linearGradient id="bgprgeneralsurgeryumbilicalh" x1="0" y1="0" x2="1" y2="1"><stop offset="0" stop-color="#123642"/><stop offset=".52" stop-color="#16414f"/><stop offset="1" stop-color="#2b7a86"/></linearGradient><radialGradient id="lgprgeneralsurgeryumbilicalh" cx="0.77" cy="0.49" r=".70"><stop offset="0" stop-color="#ffffff" stop-opacity=".17"/><stop offset="1" stop-color="#ffffff" stop-opacity="0"/></radialGradient><pattern id="grprgeneralsurgeryumbilicalh" width="74" height="74" patternUnits="userSpaceOnUse"><g fill="none" stroke="#ffffff" stroke-opacity="0.13" stroke-width="1.2" stroke-linejoin="round"><path d="M37.0 0 L74 37.0 L37.0 74 L0 37.0 Z"/><path d="M18.5 18.5 L55.5 18.5 L55.5 55.5 L18.5 55.5 Z"/><path d="M37.0 0 L37.0 18.5 M74 37.0 L55.5 37.0 M37.0 74 L37.0 55.5 M0 37.0 L18.5 37.0"/><path d="M0 0 L18.5 18.5 M74 0 L55.5 18.5 M74 74 L55.5 55.5 M0 74 L18.5 55.5"/></g></pattern></defs><rect width="1400" height="560" fill="url(#bgprgeneralsurgeryumbilicalh)"/><g transform="rotate(26 700.0 280.0)"><rect x="-560.0" y="-224.0" width="2520.0" height="1008.0" fill="url(#grprgeneralsurgeryumbilicalh)"/></g><rect width="1400" height="560" fill="url(#lgprgeneralsurgeryumbilicalh)"/><circle cx="1078" cy="274" r="224" fill="#ffffff" fill-opacity=".055"/><circle cx="1078" cy="274" r="224" stroke="#ffffff" stroke-opacity=".18" stroke-width="1.6"/><g transform="translate(946.4 142.8) scale(10.967)" fill="none" stroke="#ffffff" stroke-opacity="0.9" stroke-width="1.05" stroke-linecap="round" stroke-linejoin="round"><path d="M9 3h6v6h6v6h-6v6H9v-6H3V9h6V3Z"></path></g><path d="M859.7 224.0 A224 224 0 0 1 1285.7 190.5" fill="none" stroke="#d9a05b" stroke-opacity="0.85" stroke-width="2.6" stroke-linecap="round"/></svg>