<svg xmlns="http://www.w3.org/2000/svg" viewBox="0 0 1400 560" width="1400" height="560" role="img" aria-label="Urethroplasty" fill="none"><defs><linearGradient id="bgprurologyurethroplasty" x1="0" y1="0" x2="1" y2="1"><stop offset="0" stop-color="#1c2850"/><stop offset=".52" stop-color="#23305e"/><stop offset="1" stop-color="#45579c"/></linearGradient><radialGradient id="lgprurologyurethroplasty" cx="0.80" cy="0.52" r=".70"><stop offset="0" stop-color="#ffffff" stop-opacity=".17"/><stop offset="1" stop-color="#ffffff" stop-opacity="0"/></radialGradient><pattern id="grprurologyurethroplasty" width="84" height="84" patternUnits="userSpaceOnUse"><g fill="none" stroke="#ffffff" stroke-opacity="0.13" stroke-width="1.2" stroke-linejoin="round"><path d="M42.0 0 L84 42.0 L42.0 84 L0 42.0 Z"/><path d="M21.0 21.0 L63.0 21.0 L63.0 63.0 L21.0 63.0 Z"/><path d="M42.0 0 L42.0 21.0 M84 42.0 L63.0 42.0 M42.0 84 L42.0 63.0 M0 42.0 L21.0 42.0"/><path d="M0 0 L21.0 21.0 M84 0 L63.0 21.0 M84 84 L63.0 63.0 M0 84 L21.0 63.0"/></g></pattern></defs><rect width="1400" height="560" fill="url(#bgprurologyurethroplasty)"/><g transform="rotate(-6 700.0 280.0)"><rect x="-560.0" y="-224.0" width="2520.0" height="1008.0" fill="url(#grprurologyurethroplasty)"/></g><rect width="1400" height="560" fill="url(#lgprurologyurethroplasty)"/><circle cx="1120" cy="291" r="224" fill="#ffffff" fill-opacity=".055"/><circle cx="1120" cy="291" r="224" stroke="#ffffff" stroke-opacity=".18" stroke-width="1.6"/><g transform="translate(988.4 159.6) scale(10.967)" fill="none" stroke="#ffffff" stroke-opacity="0.9" stroke-width="1.05" stroke-linecap="round" stroke-linejoin="round"><path d="M8 4c-4 0-5 4-5 8s2 8 6 8c3 0 4-2 4-5V9c0-3-2-5-5-5Zm8 0c4 0 5 4 5 8s-2 8-6 8c-3 0-4-2-4-5"></path></g><path d="M922.2 186.0 A224 224 0 0 1 1342.3 263.9" fill="none" stroke="#d9a05b" stroke-opacity="0.85" stroke-width="2.6" stroke-linecap="round"/></svg>