<svg xmlns="http://www.w3.org/2000/svg" viewBox="0 0 1400 560" width="1400" height="560" role="img" aria-label="Endoscopic Sleeve Gastroplasty" fill="none"><defs><linearGradient id="bgprbariatricsurgeryendoscop" x1="0" y1="0" x2="1" y2="1"><stop offset="0" stop-color="#09443a"/><stop offset=".52" stop-color="#0b4f43"/><stop offset="1" stop-color="#17977a"/></linearGradient><radialGradient id="lgprbariatricsurgeryendoscop" cx="0.74" cy="0.46" r=".70"><stop offset="0" stop-color="#ffffff" stop-opacity=".17"/><stop offset="1" stop-color="#ffffff" stop-opacity="0"/></radialGradient><pattern id="grprbariatricsurgeryendoscop" width="64" height="64" patternUnits="userSpaceOnUse"><g fill="none" stroke="#ffffff" stroke-opacity="0.13" stroke-width="1.2" stroke-linejoin="round"><path d="M32.0 0 L64 32.0 L32.0 64 L0 32.0 Z"/><path d="M16.0 16.0 L48.0 16.0 L48.0 48.0 L16.0 48.0 Z"/><path d="M32.0 0 L32.0 16.0 M64 32.0 L48.0 32.0 M32.0 64 L32.0 48.0 M0 32.0 L16.0 32.0"/><path d="M0 0 L16.0 16.0 M64 0 L48.0 16.0 M64 64 L48.0 48.0 M0 64 L16.0 48.0"/></g></pattern></defs><rect width="1400" height="560" fill="url(#bgprbariatricsurgeryendoscop)"/><g transform="rotate(-6 700.0 280.0)"><rect x="-560.0" y="-224.0" width="2520.0" height="1008.0" fill="url(#grprbariatricsurgeryendoscop)"/></g><rect width="1400" height="560" fill="url(#lgprbariatricsurgeryendoscop)"/><circle cx="1036" cy="258" r="224" fill="#ffffff" fill-opacity=".055"/><circle cx="1036" cy="258" r="224" stroke="#ffffff" stroke-opacity=".18" stroke-width="1.6"/><g transform="translate(904.4 126.0) scale(10.967)" fill="none" stroke="#ffffff" stroke-opacity="0.9" stroke-width="1.05" stroke-linecap="round" stroke-linejoin="round"><path d="M6 4h12l3 5-3 11H6L3 9l3-5Zm2 5a4 4 0 0 1 8 0M12 9l2-2"></path></g><path d="M823.0 188.4 A224 224 0 0 1 1250.2 192.1" fill="none" stroke="#d9a05b" stroke-opacity="0.85" stroke-width="2.6" stroke-linecap="round"/></svg>