<svg xmlns="http://www.w3.org/2000/svg" viewBox="0 0 1120 340" width="1120" height="340" role="img" aria-label="Procedure video library" fill="none"><defs><linearGradient id="bgeguidevideossvg" x1="0" y1="0" x2="1" y2="1"><stop offset="0" stop-color="#10344b"/><stop offset=".52" stop-color="#15455f"/><stop offset="1" stop-color="#2b7796"/></linearGradient><radialGradient id="lgeguidevideossvg" cx="0.66" cy="0.30" r=".70"><stop offset="0" stop-color="#ffffff" stop-opacity=".17"/><stop offset="1" stop-color="#ffffff" stop-opacity="0"/></radialGradient><pattern id="greguidevideossvg" width="58" height="58" patternUnits="userSpaceOnUse"><g fill="none" stroke="#ffffff" stroke-opacity="0.13" stroke-width="1.2" stroke-linejoin="round"><path d="M29.0 0 L58 29.0 L29.0 58 L0 29.0 Z"/><path d="M14.5 14.5 L43.5 14.5 L43.5 43.5 L14.5 43.5 Z"/><path d="M29.0 0 L29.0 14.5 M58 29.0 L43.5 29.0 M29.0 58 L29.0 43.5 M0 29.0 L14.5 29.0"/><path d="M0 0 L14.5 14.5 M58 0 L43.5 14.5 M58 58 L43.5 43.5 M0 58 L14.5 43.5"/></g></pattern></defs><rect width="1120" height="340" fill="url(#bgeguidevideossvg)"/><g transform="rotate(18 560.0 170.0)"><rect x="-448.0" y="-136.0" width="2016.0" height="612.0" fill="url(#greguidevideossvg)"/></g><rect width="1120" height="340" fill="url(#lgeguidevideossvg)"/><circle cx="515" cy="156" r="143" fill="#ffffff" fill-opacity=".055"/><circle cx="515" cy="156" r="143" stroke="#ffffff" stroke-opacity=".18" stroke-width="1.6"/><g transform="translate(302 170)" fill="none" stroke="#ffffff" stroke-opacity="0.92" stroke-width="3.0" stroke-linecap="round" stroke-linejoin="round"><rect x="-62" y="-40" width="124" height="80" rx="12"/><path d="M-14 -18 L26 0 L-14 18z"/></g><rect x="504" y="68" width="190" height="204" rx="10" fill="#ffffff" fill-opacity=".05" stroke="#ffffff" stroke-opacity="0.68" stroke-width="1.7"/><path d="M531 125 h118" stroke="#ffffff" stroke-opacity="0.51" stroke-width="1.7" stroke-linecap="round"/><path d="M531 164 h84" stroke="#ffffff" stroke-opacity="0.51" stroke-width="1.7" stroke-linecap="round"/><path d="M531 203 h118" stroke="#ffffff" stroke-opacity="0.51" stroke-width="1.7" stroke-linecap="round"/><rect x="762" y="68" width="190" height="204" rx="10" fill="#ffffff" fill-opacity=".05" stroke="#ffffff" stroke-opacity="0.68" stroke-width="1.7"/><path d="M788 125 h118" stroke="#ffffff" stroke-opacity="0.51" stroke-width="1.7" stroke-linecap="round"/><path d="M788 164 h84" stroke="#ffffff" stroke-opacity="0.51" stroke-width="1.7" stroke-linecap="round"/><path d="M788 203 h118" stroke="#ffffff" stroke-opacity="0.51" stroke-width="1.7" stroke-linecap="round"/><path d="M384.7 98.3 A143 143 0 0 1 657.2 141.5" fill="none" stroke="#d9a05b" stroke-opacity="0.85" stroke-width="2.5" stroke-linecap="round"/></svg>