<svg xmlns="http://www.w3.org/2000/svg" viewBox="0 0 800 560" width="800" height="560" role="img" aria-label="Fertility and reproductive medicine" fill="none"><defs><linearGradient id="bgtfertility" x1="0" y1="0" x2="1" y2="1"><stop offset="0" stop-color="#3d2443"/><stop offset=".52" stop-color="#4a2c50"/><stop offset="1" stop-color="#96578c"/></linearGradient><radialGradient id="lgtfertility" cx="0.68" cy="0.26" r=".70"><stop offset="0" stop-color="#ffffff" stop-opacity=".17"/><stop offset="1" stop-color="#ffffff" stop-opacity="0"/></radialGradient><pattern id="grtfertility" width="74" height="74" patternUnits="userSpaceOnUse"><g fill="none" stroke="#ffffff" stroke-opacity="0.15" stroke-width="1.2" stroke-linejoin="round"><path d="M37.0 0 L74 37.0 L37.0 74 L0 37.0 Z"/><path d="M18.5 18.5 L55.5 18.5 L55.5 55.5 L18.5 55.5 Z"/><path d="M37.0 0 L37.0 18.5 M74 37.0 L55.5 37.0 M37.0 74 L37.0 55.5 M0 37.0 L18.5 37.0"/><path d="M0 0 L18.5 18.5 M74 0 L55.5 18.5 M74 74 L55.5 55.5 M0 74 L18.5 55.5"/></g></pattern></defs><rect width="800" height="560" fill="url(#bgtfertility)"/><g transform="rotate(8 400.0 280.0)"><rect x="-320.0" y="-224.0" width="1440.0" height="1008.0" fill="url(#grtfertility)"/></g><rect width="800" height="560" fill="url(#lgtfertility)"/><circle cx="400" cy="258" r="224" fill="#ffffff" fill-opacity=".055"/><circle cx="400" cy="258" r="224" stroke="#ffffff" stroke-opacity=".18" stroke-width="1.6"/><g transform="translate(254.4 112.0) scale(12.133)" fill="none" stroke="#ffffff" stroke-opacity="0.95" stroke-width="1.05" stroke-linecap="round" stroke-linejoin="round"><circle cx="8" cy="8" r="4"></circle><circle cx="16" cy="16" r="4"></circle><path d="M11 11l2 2M16 5v3M5 16h3"></path></g><path d="M223.5 119.7 A224 224 0 0 1 623.7 269.3" fill="none" stroke="#d9a05b" stroke-opacity="0.85" stroke-width="2.4" stroke-linecap="round"/></svg>