<svg xmlns="http://www.w3.org/2000/svg" viewBox="0 0 1200 640" width="1200" height="640" role="img" aria-label="Patient, Turkelitemedcare and partner clinic" fill="none"><defs><linearGradient id="bgebusinessmodelflow" x1="0" y1="0" x2="1" y2="1"><stop offset="0" stop-color="#0a2f42"/><stop offset=".52" stop-color="#11455c"/><stop offset="1" stop-color="#17897f"/></linearGradient><radialGradient id="lgebusinessmodelflow" cx="0.66" cy="0.30" r=".70"><stop offset="0" stop-color="#ffffff" stop-opacity=".17"/><stop offset="1" stop-color="#ffffff" stop-opacity="0"/></radialGradient><linearGradient id="scebusinessmodelflow" x1="0" y1="0" x2="0" y2="1"><stop offset="0" stop-color="#0a2f42" stop-opacity="0"/><stop offset="1" stop-color="#0a2f42" stop-opacity=".80"/></linearGradient><pattern id="grebusinessmodelflow" width="58" height="58" patternUnits="userSpaceOnUse"><g fill="none" stroke="#ffffff" stroke-opacity="0.13" stroke-width="1.2" stroke-linejoin="round"><path d="M29.0 0 L58 29.0 L29.0 58 L0 29.0 Z"/><path d="M14.5 14.5 L43.5 14.5 L43.5 43.5 L14.5 43.5 Z"/><path d="M29.0 0 L29.0 14.5 M58 29.0 L43.5 29.0 M29.0 58 L29.0 43.5 M0 29.0 L14.5 29.0"/><path d="M0 0 L14.5 14.5 M58 0 L43.5 14.5 M58 58 L43.5 43.5 M0 58 L14.5 43.5"/></g></pattern></defs><rect width="1200" height="640" fill="url(#bgebusinessmodelflow)"/><g transform="rotate(-6 600.0 320.0)"><rect x="-480.0" y="-256.0" width="2160.0" height="1152.0" fill="url(#grebusinessmodelflow)"/></g><rect width="1200" height="640" fill="url(#lgebusinessmodelflow)"/><circle cx="552" cy="294" r="269" fill="#ffffff" fill-opacity=".055"/><circle cx="552" cy="294" r="269" stroke="#ffffff" stroke-opacity=".18" stroke-width="1.6"/><rect x="672" y="154" width="360" height="307" rx="10" fill="#ffffff" fill-opacity=".05" stroke="#ffffff" stroke-opacity="0.68" stroke-width="1.7"/><path d="M722 240 h223" stroke="#ffffff" stroke-opacity="0.51" stroke-width="1.7" stroke-linecap="round"/><path d="M722 298 h158" stroke="#ffffff" stroke-opacity="0.51" stroke-width="1.7" stroke-linecap="round"/><path d="M722 356 h223" stroke="#ffffff" stroke-opacity="0.51" stroke-width="1.7" stroke-linecap="round"/><path d="M722 415 h158" stroke="#ffffff" stroke-opacity="0.51" stroke-width="1.7" stroke-linecap="round"/><circle cx="480" cy="198" r="30" fill="#ffffff" fill-opacity=".08" stroke="#ffffff" stroke-opacity="0.92" stroke-width="3.0"/><circle cx="312" cy="403" r="24" fill="#ffffff" fill-opacity=".08" stroke="#ffffff" stroke-opacity="0.92" stroke-width="3.0"/><circle cx="624" cy="403" r="24" fill="#ffffff" fill-opacity=".08" stroke="#ffffff" stroke-opacity="0.92" stroke-width="3.0"/><g fill="none" stroke="#ffffff" stroke-opacity="0.55" stroke-width="1.7" stroke-linecap="round" stroke-linejoin="round"><path d="M459 219 L327 388"/><path d="M501 219 L609 388"/><path d="M337 403 H599"/></g><path d="M321.6 156.0 A269 269 0 0 1 812.8 229.4" fill="none" stroke="#d9a05b" stroke-opacity="0.85" stroke-width="2.5" stroke-linecap="round"/><rect y="512.0" width="1200" height="128.0" fill="url(#scebusinessmodelflow)"/></svg>