<svg xmlns="http://www.w3.org/2000/svg" viewBox="0 0 820 660" width="820" height="660" role="img" aria-label="Airport and clinic transfers" fill="none"><defs><linearGradient id="bgsservicetransferssvg" x1="0" y1="0" x2="1" y2="1"><stop offset="0" stop-color="#093a44"/><stop offset=".52" stop-color="#0e4d55"/><stop offset="1" stop-color="#188b84"/></linearGradient><radialGradient id="lgsservicetransferssvg" cx="0.62" cy="0.30" r=".70"><stop offset="0" stop-color="#ffffff" stop-opacity=".17"/><stop offset="1" stop-color="#ffffff" stop-opacity="0"/></radialGradient><pattern id="grsservicetransferssvg" width="46" height="46" patternUnits="userSpaceOnUse"><g fill="none" stroke="#ffffff" stroke-opacity="0.15" stroke-width="1.2" stroke-linejoin="round"><path d="M23.0 0 L46 23.0 L23.0 46 L0 23.0 Z"/><path d="M11.5 11.5 L34.5 11.5 L34.5 34.5 L11.5 34.5 Z"/><path d="M23.0 0 L23.0 11.5 M46 23.0 L34.5 23.0 M23.0 46 L23.0 34.5 M0 23.0 L11.5 23.0"/><path d="M0 0 L11.5 11.5 M46 0 L34.5 11.5 M46 46 L34.5 34.5 M0 46 L11.5 34.5"/></g></pattern></defs><rect width="820" height="660" fill="url(#bgsservicetransferssvg)"/><g transform="rotate(12 410.0 330.0)"><rect x="-328.0" y="-264.0" width="1476.0" height="1188.0" fill="url(#grsservicetransferssvg)"/></g><rect width="820" height="660" fill="url(#lgsservicetransferssvg)"/><circle cx="394" cy="317" r="284" fill="#ffffff" fill-opacity=".055"/><circle cx="394" cy="317" r="284" stroke="#ffffff" stroke-opacity=".18" stroke-width="1.6"/><g fill="none" stroke="#ffffff" stroke-opacity="0.42" stroke-width="1.7" stroke-linecap="round" stroke-linejoin="round"><path d="M74 502 q180 -198 377 -79" stroke-dasharray="8 10"/></g><g transform="translate(312 304) scale(1.4)" fill="none" stroke="#ffffff" stroke-opacity="0.95" stroke-width="3.0" stroke-linecap="round" stroke-linejoin="round"><rect x="-52" y="-20" width="104" height="34" rx="9"/><path d="M-36 -20 l10 -16 h52 l10 16"/><circle cx="-28" cy="18" r="11"/><circle cx="28" cy="18" r="11"/></g><g transform="translate(590 211) scale(1.6)" fill="none" stroke="#ffffff" stroke-opacity="0.8" stroke-width="1.7" stroke-linecap="round" stroke-linejoin="round"><path d="M0 0 c-16 -20 -12 -34 0 -34 c12 0 16 14 0 34z"/><circle cx="0" cy="-20" r="6"/></g><path d="M123.7 229.1 A284 284 0 0 1 656.7 210.5" fill="none" stroke="#d9a05b" stroke-opacity="0.85" stroke-width="2.6" stroke-linecap="round"/></svg>